<svg xmlns="http://www.w3.org/2000/svg" id="export" class="canvas" preserveAspectRatio="xMidYMid meet" style="" width="215" height="1144"><rect id="background" fill="#fff" pointer-events="all" cursor="default" width="215" height="1144"/><g id="origin" transform="translate(9.76724853515625, 9.76724853515625) scale(1)"><g id="clusters" class="clusters"/><g id="edge-paths" class="edge-paths"><defs><marker id="arrowhead-vee" viewBox="0 0 10 10" refX="9" refY="5" markerUnits="strokeWidth" markerWidth="8" markerHeight="6" orient="auto" style="fill: rgb(0, 0, 0);"><path d="M 0 0 L 10 5 L 0 10 L 4 5 z" style="stroke-width: 1;"/></marker><marker id="arrowhead-vee-select" viewBox="0 0 10 10" refX="9" refY="5" markerUnits="strokeWidth" markerWidth="8" markerHeight="6" orient="auto" style="fill: rgb(238, 0, 0);"><path d="M 0 0 L 10 5 L 0 10 L 4 5 z" style="stroke-width: 1;"/></marker></defs><path id="edge-input.1" class="edge-path" d="M134.621826171875,23L134.621826171875,24.666666666666668C134.621826171875,26.333333333333332,134.621826171875,29.666666666666668,134.621826171875,35C134.621826171875,40.333333333333336,134.621826171875,47.666666666666664,134.621826171875,55C134.621826171875,62.333333333333336,134.621826171875,69.66666666666667,134.621826171875,75C134.621826171875,80.33333333333333,134.621826171875,83.66666666666667,134.621826171875,85.33333333333333L134.621826171875,87" style="stroke: rgb(0, 0, 0); stroke-width: 1px; fill: none; marker-end: url(&quot;#arrowhead-vee&quot;);"/><path id="edge-onnx::Concat_1" class="edge-path" d="M43.5546875,755L43.5546875,756.6666666666666C43.5546875,758.3333333333334,43.5546875,761.6666666666666,43.5546875,767C43.5546875,772.3333333333334,43.5546875,779.6666666666666,43.5546875,787C43.5546875,794.3333333333334,43.5546875,801.6666666666666,47.130391438802086,807.0217060176063C50.706095377604164,812.3767453685459,57.857503255208336,815.7534907370919,61.433207194010414,817.4418634213647L65.0089111328125,819.1302361056377" style="stroke: rgb(0, 0, 0); stroke-width: 1px; fill: none; marker-end: url(&quot;#arrowhead-vee&quot;);"/><path id="edge-/embedding/Gather_output_0" class="edge-path" d="M134.621826171875,110L134.621826171875,111.66666666666667C134.621826171875,113.33333333333333,134.621826171875,116.66666666666667,134.621826171875,120C134.621826171875,123.33333333333333,134.621826171875,126.66666666666667,134.621826171875,128.33333333333334L134.621826171875,130" style="stroke: rgb(0, 0, 0); stroke-width: 1px; fill: none; marker-end: url(&quot;#arrowhead-vee&quot;);"/><path id="edge-/Transpose_output_0" class="edge-path" d="M149.01432480922966,153L151.10019417696222,154.66666666666666C153.18606354469478,156.33333333333334,157.3578022801599,159.66666666666666,159.44367164789244,163C161.529541015625,166.33333333333334,161.529541015625,169.66666666666666,161.529541015625,171.33333333333334L161.529541015625,173" style="stroke: rgb(0, 0, 0); stroke-width: 1px; fill: none; marker-end: url(&quot;#arrowhead-vee&quot;);"/><path id="edge-/Transpose_output_0" class="edge-path" d="M120.22932753452035,153L118.1434581667878,154.66666666666666C116.05758879905522,156.33333333333334,111.88585006359011,159.66666666666666,109.79998069585757,164.91666666666666C107.714111328125,170.16666666666666,107.714111328125,177.33333333333334,107.714111328125,184.5C107.714111328125,191.66666666666666,107.714111328125,198.83333333333334,107.714111328125,206C107.714111328125,213.16666666666666,107.714111328125,220.33333333333334,107.714111328125,227.5C107.714111328125,234.66666666666666,107.714111328125,241.83333333333334,107.714111328125,249C107.714111328125,256.1666666666667,107.714111328125,263.3333333333333,107.714111328125,270.5C107.714111328125,277.6666666666667,107.714111328125,284.8333333333333,107.714111328125,292C107.714111328125,299.1666666666667,107.714111328125,306.3333333333333,107.714111328125,313.5C107.714111328125,320.6666666666667,107.714111328125,327.8333333333333,107.714111328125,335C107.714111328125,342.1666666666667,107.714111328125,349.3333333333333,107.714111328125,356.5C107.714111328125,363.6666666666667,107.714111328125,370.8333333333333,109.79998069585757,376.0833333333333C111.88585006359011,381.3333333333333,116.05758879905522,384.6666666666667,118.1434581667878,386.3333333333333L120.22932753452035,388" style="stroke: rgb(0, 0, 0); stroke-width: 1px; fill: none; marker-end: url(&quot;#arrowhead-vee&quot;);"/><path id="edge-/gru/Shape_output_0" class="edge-path" d="M161.529541015625,196L161.529541015625,197.66666666666666C161.529541015625,199.33333333333334,161.529541015625,202.66666666666666,161.529541015625,206C161.529541015625,209.33333333333334,161.529541015625,212.66666666666666,161.529541015625,214.33333333333334L161.529541015625,216" style="stroke: rgb(0, 0, 0); stroke-width: 1px; fill: none; marker-end: url(&quot;#arrowhead-vee&quot;);"/><path id="edge-/gru/Gather_output_0" class="edge-path" d="M161.529541015625,239L161.529541015625,240.66666666666666C161.529541015625,242.33333333333334,161.529541015625,245.66666666666666,161.529541015625,249C161.529541015625,252.33333333333334,161.529541015625,255.66666666666666,161.529541015625,257.3333333333333L161.529541015625,259" style="stroke: rgb(0, 0, 0); stroke-width: 1px; fill: none; marker-end: url(&quot;#arrowhead-vee&quot;);"/><path id="edge-onnx::Concat_89" class="edge-path" d="M161.529541015625,282L161.529541015625,283.6666666666667C161.529541015625,285.3333333333333,161.529541015625,288.6666666666667,161.529541015625,292C161.529541015625,295.3333333333333,161.529541015625,298.6666666666667,161.529541015625,300.3333333333333L161.529541015625,302" style="stroke: rgb(0, 0, 0); stroke-width: 1px; fill: none; marker-end: url(&quot;#arrowhead-vee&quot;);"/><path id="edge-/gru/Concat_output_0" class="edge-path" d="M161.529541015625,325L161.529541015625,326.6666666666667C161.529541015625,328.3333333333333,161.529541015625,331.6666666666667,161.529541015625,335C161.529541015625,338.3333333333333,161.529541015625,341.6666666666667,161.529541015625,343.3333333333333L161.529541015625,345" style="stroke: rgb(0, 0, 0); stroke-width: 1px; fill: none; marker-end: url(&quot;#arrowhead-vee&quot;);"/><path id="edge-/gru/Expand_output_0" class="edge-path" d="M161.529541015625,368L161.529541015625,369.6666666666667C161.529541015625,371.3333333333333,161.529541015625,374.6666666666667,159.44367164789244,378C157.3578022801599,381.3333333333333,153.18606354469478,384.6666666666667,151.10019417696222,386.3333333333333L149.01432480922966,388" style="stroke: rgb(0, 0, 0); stroke-width: 1px; fill: none; marker-end: url(&quot;#arrowhead-vee&quot;);"/><path id="edge-/gru/GRU_output_0" class="edge-path" d="M134.621826171875,411L134.621826171875,412.6666666666667C134.621826171875,414.3333333333333,134.621826171875,417.6666666666667,134.621826171875,421C134.621826171875,424.3333333333333,134.621826171875,427.6666666666667,134.621826171875,429.3333333333333L134.621826171875,431" style="stroke: rgb(0, 0, 0); stroke-width: 1px; fill: none; marker-end: url(&quot;#arrowhead-vee&quot;);"/><path id="edge-/gru/Squeeze_output_0" class="edge-path" d="M149.01432480922966,454L151.10019417696222,455.6666666666667C153.18606354469478,457.3333333333333,157.3578022801599,460.6666666666667,159.44367164789244,464C161.529541015625,467.3333333333333,161.529541015625,470.6666666666667,161.529541015625,472.3333333333333L161.529541015625,474" style="stroke: rgb(0, 0, 0); stroke-width: 1px; fill: none; marker-end: url(&quot;#arrowhead-vee&quot;);"/><path id="edge-/gru/Squeeze_output_0" class="edge-path" d="M120.22932753452035,454L118.1434581667878,455.6666666666667C116.05758879905522,457.3333333333333,111.88585006359011,460.6666666666667,109.79998069585757,465.9166666666667C107.714111328125,471.1666666666667,107.714111328125,478.3333333333333,107.714111328125,485.5C107.714111328125,492.6666666666667,107.714111328125,499.8333333333333,107.714111328125,507C107.714111328125,514.1666666666666,107.714111328125,521.3333333333334,107.714111328125,528.5C107.714111328125,535.6666666666666,107.714111328125,542.8333333333334,107.714111328125,550C107.714111328125,557.1666666666666,107.714111328125,564.3333333333334,107.714111328125,571.5C107.714111328125,578.6666666666666,107.714111328125,585.8333333333334,107.714111328125,593C107.714111328125,600.1666666666666,107.714111328125,607.3333333333334,107.714111328125,614.5C107.714111328125,621.6666666666666,107.714111328125,628.8333333333334,107.714111328125,636C107.714111328125,643.1666666666666,107.714111328125,650.3333333333334,107.714111328125,657.5C107.714111328125,664.6666666666666,107.714111328125,671.8333333333334,109.79998069585757,677.0833333333334C111.88585006359011,682.3333333333334,116.05758879905522,685.6666666666666,118.1434581667878,687.3333333333334L120.22932753452035,689" style="stroke: rgb(0, 0, 0); stroke-width: 1px; fill: none; marker-end: url(&quot;#arrowhead-vee&quot;);"/><path id="edge-/gru/Shape_1_output_0" class="edge-path" d="M161.529541015625,497L161.529541015625,498.6666666666667C161.529541015625,500.3333333333333,161.529541015625,503.6666666666667,161.529541015625,507C161.529541015625,510.3333333333333,161.529541015625,513.6666666666666,161.529541015625,515.3333333333334L161.529541015625,517" style="stroke: rgb(0, 0, 0); stroke-width: 1px; fill: none; marker-end: url(&quot;#arrowhead-vee&quot;);"/><path id="edge-/gru/Gather_1_output_0" class="edge-path" d="M161.529541015625,540L161.529541015625,541.6666666666666C161.529541015625,543.3333333333334,161.529541015625,546.6666666666666,161.529541015625,550C161.529541015625,553.3333333333334,161.529541015625,556.6666666666666,161.529541015625,558.3333333333334L161.529541015625,560" style="stroke: rgb(0, 0, 0); stroke-width: 1px; fill: none; marker-end: url(&quot;#arrowhead-vee&quot;);"/><path id="edge-onnx::Concat_167" class="edge-path" d="M161.529541015625,583L161.529541015625,584.6666666666666C161.529541015625,586.3333333333334,161.529541015625,589.6666666666666,161.529541015625,593C161.529541015625,596.3333333333334,161.529541015625,599.6666666666666,161.529541015625,601.3333333333334L161.529541015625,603" style="stroke: rgb(0, 0, 0); stroke-width: 1px; fill: none; marker-end: url(&quot;#arrowhead-vee&quot;);"/><path id="edge-/gru/Concat_1_output_0" class="edge-path" d="M161.529541015625,626L161.529541015625,627.6666666666666C161.529541015625,629.3333333333334,161.529541015625,632.6666666666666,161.529541015625,636C161.529541015625,639.3333333333334,161.529541015625,642.6666666666666,161.529541015625,644.3333333333334L161.529541015625,646" style="stroke: rgb(0, 0, 0); stroke-width: 1px; fill: none; marker-end: url(&quot;#arrowhead-vee&quot;);"/><path id="edge-/gru/Expand_1_output_0" class="edge-path" d="M161.529541015625,669L161.529541015625,670.6666666666666C161.529541015625,672.3333333333334,161.529541015625,675.6666666666666,159.44367164789244,679C157.3578022801599,682.3333333333334,153.18606354469478,685.6666666666666,151.10019417696222,687.3333333333334L149.01432480922966,689" style="stroke: rgb(0, 0, 0); stroke-width: 1px; fill: none; marker-end: url(&quot;#arrowhead-vee&quot;);"/><path id="edge-/gru/GRU_1_output_0" class="edge-path" d="M134.621826171875,712L134.621826171875,713.6666666666666C134.621826171875,715.3333333333334,134.621826171875,718.6666666666666,134.621826171875,722C134.621826171875,725.3333333333334,134.621826171875,728.6666666666666,134.621826171875,730.3333333333334L134.621826171875,732" style="stroke: rgb(0, 0, 0); stroke-width: 1px; fill: none; marker-end: url(&quot;#arrowhead-vee&quot;);"/><path id="edge-/gru/Squeeze_1_output_0" class="edge-path" d="M134.621826171875,755L134.621826171875,756.6666666666666C134.621826171875,758.3333333333334,134.621826171875,761.6666666666666,134.621826171875,765.0833333333334C134.621826171875,768.5,134.621826171875,772,134.621826171875,773.75L134.621826171875,775.5" style="stroke: rgb(0, 0, 0); stroke-width: 1px; fill: none; marker-end: url(&quot;#arrowhead-vee&quot;);"/><path id="edge-/Gather_output_0" class="edge-path" d="M134.621826171875,798.5L134.621826171875,800.25C134.621826171875,802,134.621826171875,805.5,131.0461222330729,808.938372684273C127.47041829427083,812.3767453685459,120.31901041666667,815.7534907370919,116.74330647786458,817.4418634213647L113.1676025390625,819.1302361056377" style="stroke: rgb(0, 0, 0); stroke-width: 1px; fill: none; marker-end: url(&quot;#arrowhead-vee&quot;);"/><path id="edge-/Concat_output_0" class="edge-path" d="M89.0882568359375,842L89.0882568359375,843.6666666666666C89.0882568359375,845.3333333333334,89.0882568359375,848.6666666666666,89.0882568359375,852C89.0882568359375,855.3333333333334,89.0882568359375,858.6666666666666,89.0882568359375,860.3333333333334L89.0882568359375,862" style="stroke: rgb(0, 0, 0); stroke-width: 1px; fill: none; marker-end: url(&quot;#arrowhead-vee&quot;);"/><path id="edge-/Cast_output_0" class="edge-path" d="M89.0882568359375,885L89.0882568359375,886.6666666666666C89.0882568359375,888.3333333333334,89.0882568359375,891.6666666666666,89.0882568359375,895C89.0882568359375,898.3333333333334,89.0882568359375,901.6666666666666,89.0882568359375,903.3333333333334L89.0882568359375,905" style="stroke: rgb(0, 0, 0); stroke-width: 1px; fill: none; marker-end: url(&quot;#arrowhead-vee&quot;);"/><path id="edge-/dense1/Gemm_output_0" class="edge-path" d="M89.0882568359375,928L89.0882568359375,929.6666666666666C89.0882568359375,931.3333333333334,89.0882568359375,934.6666666666666,89.0882568359375,938C89.0882568359375,941.3333333333334,89.0882568359375,944.6666666666666,89.0882568359375,946.3333333333334L89.0882568359375,948" style="stroke: rgb(0, 0, 0); stroke-width: 1px; fill: none; marker-end: url(&quot;#arrowhead-vee&quot;);"/><path id="edge-/Relu_output_0" class="edge-path" d="M89.0882568359375,971L89.0882568359375,972.6666666666666C89.0882568359375,974.3333333333334,89.0882568359375,977.6666666666666,89.0882568359375,981C89.0882568359375,984.3333333333334,89.0882568359375,987.6666666666666,89.0882568359375,989.3333333333334L89.0882568359375,991" style="stroke: rgb(0, 0, 0); stroke-width: 1px; fill: none; marker-end: url(&quot;#arrowhead-vee&quot;);"/><path id="edge-/dense2/Gemm_output_0" class="edge-path" d="M89.0882568359375,1014L89.0882568359375,1015.6666666666666C89.0882568359375,1017.3333333333334,89.0882568359375,1020.6666666666666,89.0882568359375,1024C89.0882568359375,1027.3333333333333,89.0882568359375,1030.6666666666667,89.0882568359375,1032.3333333333333L89.0882568359375,1034" style="stroke: rgb(0, 0, 0); stroke-width: 1px; fill: none; marker-end: url(&quot;#arrowhead-vee&quot;);"/><path id="edge-184" class="edge-path" d="M89.0882568359375,1057L89.0882568359375,1060.6666666666667C89.0882568359375,1064.3333333333333,89.0882568359375,1071.6666666666667,89.0882568359375,1079C89.0882568359375,1086.3333333333333,89.0882568359375,1093.6666666666667,89.0882568359375,1097.3333333333333L89.0882568359375,1101" style="stroke: rgb(0, 0, 0); stroke-width: 1px; fill: none; marker-end: url(&quot;#arrowhead-vee&quot;);"/></g><g id="edge-labels" class="edge-labels"><text class="edge-label" id="edge-label-edge-input.1" transform="translate(139.621826171875,48)" style="opacity: 1; font-family: -apple-system, BlinkMacSystemFont, &quot;Segoe WPC&quot;, &quot;Segoe UI&quot;, Ubuntu, &quot;Droid Sans&quot;, sans-serif, &quot;PingFang SC&quot;; font-size: 10px;"><tspan xml:space="preserve" dy="1em" x="1">128×1400</tspan></text><text class="edge-label" id="edge-label-edge-onnx::Concat_1" transform="translate(48.5546875,780)" style="opacity: 1; font-family: -apple-system, BlinkMacSystemFont, &quot;Segoe WPC&quot;, &quot;Segoe UI&quot;, Ubuntu, &quot;Droid Sans&quot;, sans-serif, &quot;PingFang SC&quot;; font-size: 10px;"><tspan xml:space="preserve" dy="1em" x="1">128×25</tspan></text><text class="edge-label" id="edge-label-edge-184" transform="translate(94.0882568359375,1072)" style="opacity: 1; font-family: -apple-system, BlinkMacSystemFont, &quot;Segoe WPC&quot;, &quot;Segoe UI&quot;, Ubuntu, &quot;Droid Sans&quot;, sans-serif, &quot;PingFang SC&quot;; font-size: 10px;"><tspan xml:space="preserve" dy="1em" x="1">128×1</tspan></text></g><g id="nodes" class="nodes"><g id="input-name-input.1" class="node graph-input" transform="translate(110.809326171875,0)" style="opacity: 1;"><g class="node-item graph-item-input" transform="translate(0,0)"><path d="M5,0h37.625a5,5 0 0 1 5,5v13a5,5 0 0 1 -5,5h-37.625a5,5 0 0 1 -5,-5v-13a5,5 0 0 1 5,-5z" style="stroke: rgb(0, 0, 0); fill: rgb(238, 238, 238); stroke-width: 0;"/><text x="6" y="16" style="font-family: -apple-system, BlinkMacSystemFont, &quot;Segoe WPC&quot;, &quot;Segoe UI&quot;, Ubuntu, &quot;Droid Sans&quot;, sans-serif, &quot;PingFang SC&quot;; font-size: 11px; text-rendering: geometricprecision;">input.1</text><title>int64[128,1400]</title></g><path class="node border" d="M5,0h37.625a5,5 0 0 1 5,5v13a5,5 0 0 1 -5,5h-37.625a5,5 0 0 1 -5,-5v-13a5,5 0 0 1 5,-5z" style="stroke: rgb(51, 51, 51); fill: none; stroke-width: 1px;"/></g><g id="input-name-onnx::Concat_1" class="node graph-input" transform="translate(0,732)" style="opacity: 1;"><g class="node-item graph-item-input" transform="translate(0,0)"><path d="M5,0h77.109375a5,5 0 0 1 5,5v13a5,5 0 0 1 -5,5h-77.109375a5,5 0 0 1 -5,-5v-13a5,5 0 0 1 5,-5z" style="stroke: rgb(0, 0, 0); fill: rgb(238, 238, 238); stroke-width: 0;"/><text x="6" y="16" style="font-family: -apple-system, BlinkMacSystemFont, &quot;Segoe WPC&quot;, &quot;Segoe UI&quot;, Ubuntu, &quot;Droid Sans&quot;, sans-serif, &quot;PingFang SC&quot;; font-size: 11px; text-rendering: geometricprecision;">onnx::Concat_1</text><title>float32[128,25]</title></g><path class="node border" d="M5,0h77.109375a5,5 0 0 1 5,5v13a5,5 0 0 1 -5,5h-77.109375a5,5 0 0 1 -5,-5v-13a5,5 0 0 1 5,-5z" style="stroke: rgb(51, 51, 51); fill: none; stroke-width: 1px;"/></g><g id="node-name-/embedding/Gather" class="node graph-node" transform="translate(110.69775390625,87)" style="opacity: 1;"><g class="node-item node-item-type node-item-type-transform" transform="translate(0,0)"><path d="M5,0h37.84814453125a5,5 0 0 1 5,5v13a5,5 0 0 1 -5,5h-37.84814453125a5,5 0 0 1 -5,-5v-13a5,5 0 0 1 5,-5z" style="stroke: rgb(0, 0, 0); fill: rgb(51, 85, 68); stroke-width: 0;"/><text x="6" y="16" style="font-family: -apple-system, BlinkMacSystemFont, &quot;Segoe WPC&quot;, &quot;Segoe UI&quot;, Ubuntu, &quot;Droid Sans&quot;, sans-serif, &quot;PingFang SC&quot;; font-size: 11px; text-rendering: geometricprecision; fill: rgb(255, 255, 255);">Gather</text><title>/embedding/Gather</title></g><path class="node border" d="M5,0h37.84814453125a5,5 0 0 1 5,5v13a5,5 0 0 1 -5,5h-37.84814453125a5,5 0 0 1 -5,-5v-13a5,5 0 0 1 5,-5z" style="stroke: rgb(51, 51, 51); fill: none; stroke-width: 1px;"/></g><g id="node-name-/Transpose" class="node graph-node" transform="translate(102.771728515625,130)" style="opacity: 1;"><g class="node-item node-item-type node-item-type-transform" transform="translate(0,0)"><path d="M5,0h53.7001953125a5,5 0 0 1 5,5v13a5,5 0 0 1 -5,5h-53.7001953125a5,5 0 0 1 -5,-5v-13a5,5 0 0 1 5,-5z" style="stroke: rgb(0, 0, 0); fill: rgb(51, 85, 68); stroke-width: 0;"/><text x="6" y="16" style="font-family: -apple-system, BlinkMacSystemFont, &quot;Segoe WPC&quot;, &quot;Segoe UI&quot;, Ubuntu, &quot;Droid Sans&quot;, sans-serif, &quot;PingFang SC&quot;; font-size: 11px; text-rendering: geometricprecision; fill: rgb(255, 255, 255);">Transpose</text><title>/Transpose</title></g><path class="node border" d="M5,0h53.7001953125a5,5 0 0 1 5,5v13a5,5 0 0 1 -5,5h-53.7001953125a5,5 0 0 1 -5,-5v-13a5,5 0 0 1 5,-5z" style="stroke: rgb(51, 51, 51); fill: none; stroke-width: 1px;"/></g><g id="node-name-/gru/Shape" class="node graph-node" transform="translate(139.46337890625,173)" style="opacity: 1;"><g class="node-item node-item-type" transform="translate(0,0)"><path d="M5,0h34.13232421875a5,5 0 0 1 5,5v13a5,5 0 0 1 -5,5h-34.13232421875a5,5 0 0 1 -5,-5v-13a5,5 0 0 1 5,-5z" style="stroke: rgb(0, 0, 0); fill: rgb(0, 0, 0); stroke-width: 0;"/><text x="6" y="16" style="font-family: -apple-system, BlinkMacSystemFont, &quot;Segoe WPC&quot;, &quot;Segoe UI&quot;, Ubuntu, &quot;Droid Sans&quot;, sans-serif, &quot;PingFang SC&quot;; font-size: 11px; text-rendering: geometricprecision; fill: rgb(255, 255, 255);">Shape</text><title>/gru/Shape</title></g><path class="node border" d="M5,0h34.13232421875a5,5 0 0 1 5,5v13a5,5 0 0 1 -5,5h-34.13232421875a5,5 0 0 1 -5,-5v-13a5,5 0 0 1 5,-5z" style="stroke: rgb(51, 51, 51); fill: none; stroke-width: 1px;"/></g><g id="node-name-/gru/Gather" class="node graph-node" transform="translate(137.60546875,216)" style="opacity: 1;"><g class="node-item node-item-type node-item-type-transform" transform="translate(0,0)"><path d="M5,0h37.84814453125a5,5 0 0 1 5,5v13a5,5 0 0 1 -5,5h-37.84814453125a5,5 0 0 1 -5,-5v-13a5,5 0 0 1 5,-5z" style="stroke: rgb(0, 0, 0); fill: rgb(51, 85, 68); stroke-width: 0;"/><text x="6" y="16" style="font-family: -apple-system, BlinkMacSystemFont, &quot;Segoe WPC&quot;, &quot;Segoe UI&quot;, Ubuntu, &quot;Droid Sans&quot;, sans-serif, &quot;PingFang SC&quot;; font-size: 11px; text-rendering: geometricprecision; fill: rgb(255, 255, 255);">Gather</text><title>/gru/Gather</title></g><path class="node border" d="M5,0h37.84814453125a5,5 0 0 1 5,5v13a5,5 0 0 1 -5,5h-37.84814453125a5,5 0 0 1 -5,-5v-13a5,5 0 0 1 5,-5z" style="stroke: rgb(51, 51, 51); fill: none; stroke-width: 1px;"/></g><g id="node-name-Unsqueeze_8" class="node graph-node" transform="translate(127.714111328125,259)" style="opacity: 1;"><g class="node-item node-item-type node-item-type-transform" transform="translate(0,0)"><path d="M5,0h57.630859375a5,5 0 0 1 5,5v13a5,5 0 0 1 -5,5h-57.630859375a5,5 0 0 1 -5,-5v-13a5,5 0 0 1 5,-5z" style="stroke: rgb(0, 0, 0); fill: rgb(51, 85, 68); stroke-width: 0;"/><text x="6" y="16" style="font-family: -apple-system, BlinkMacSystemFont, &quot;Segoe WPC&quot;, &quot;Segoe UI&quot;, Ubuntu, &quot;Droid Sans&quot;, sans-serif, &quot;PingFang SC&quot;; font-size: 11px; text-rendering: geometricprecision; fill: rgb(255, 255, 255);">Unsqueeze</text><title>Unsqueeze_8</title></g><path class="node border" d="M5,0h57.630859375a5,5 0 0 1 5,5v13a5,5 0 0 1 -5,5h-57.630859375a5,5 0 0 1 -5,-5v-13a5,5 0 0 1 5,-5z" style="stroke: rgb(51, 51, 51); fill: none; stroke-width: 1px;"/></g><g id="node-name-/gru/Concat" class="node graph-node" transform="translate(137.4501953125,302)" style="opacity: 1;"><g class="node-item node-item-type node-item-type-tensor" transform="translate(0,0)"><path d="M5,0h38.15869140625a5,5 0 0 1 5,5v13a5,5 0 0 1 -5,5h-38.15869140625a5,5 0 0 1 -5,-5v-13a5,5 0 0 1 5,-5z" style="stroke: rgb(0, 0, 0); fill: rgb(89, 66, 59); stroke-width: 0;"/><text x="6" y="16" style="font-family: -apple-system, BlinkMacSystemFont, &quot;Segoe WPC&quot;, &quot;Segoe UI&quot;, Ubuntu, &quot;Droid Sans&quot;, sans-serif, &quot;PingFang SC&quot;; font-size: 11px; text-rendering: geometricprecision; fill: rgb(255, 255, 255);">Concat</text><title>/gru/Concat</title></g><path class="node border" d="M5,0h38.15869140625a5,5 0 0 1 5,5v13a5,5 0 0 1 -5,5h-38.15869140625a5,5 0 0 1 -5,-5v-13a5,5 0 0 1 5,-5z" style="stroke: rgb(51, 51, 51); fill: none; stroke-width: 1px;"/></g><g id="node-name-/gru/Expand" class="node graph-node" transform="translate(136.834228515625,345)" style="opacity: 1;"><g class="node-item node-item-type" transform="translate(0,0)"><path d="M5,0h39.390625a5,5 0 0 1 5,5v13a5,5 0 0 1 -5,5h-39.390625a5,5 0 0 1 -5,-5v-13a5,5 0 0 1 5,-5z" style="stroke: rgb(0, 0, 0); fill: rgb(0, 0, 0); stroke-width: 0;"/><text x="6" y="16" style="font-family: -apple-system, BlinkMacSystemFont, &quot;Segoe WPC&quot;, &quot;Segoe UI&quot;, Ubuntu, &quot;Droid Sans&quot;, sans-serif, &quot;PingFang SC&quot;; font-size: 11px; text-rendering: geometricprecision; fill: rgb(255, 255, 255);">Expand</text><title>/gru/Expand</title></g><path class="node border" d="M5,0h39.390625a5,5 0 0 1 5,5v13a5,5 0 0 1 -5,5h-39.390625a5,5 0 0 1 -5,-5v-13a5,5 0 0 1 5,-5z" style="stroke: rgb(51, 51, 51); fill: none; stroke-width: 1px;"/></g><g id="node-name-/gru/GRU" class="node graph-node" transform="translate(116.778076171875,388)" style="opacity: 1;"><g class="node-item node-item-type node-item-type-layer" transform="translate(0,0)"><path d="M5,0h25.6875a5,5 0 0 1 5,5v13a5,5 0 0 1 -5,5h-25.6875a5,5 0 0 1 -5,-5v-13a5,5 0 0 1 5,-5z" style="stroke: rgb(0, 0, 0); fill: rgb(51, 85, 136); stroke-width: 0;"/><text x="6" y="16" style="font-family: -apple-system, BlinkMacSystemFont, &quot;Segoe WPC&quot;, &quot;Segoe UI&quot;, Ubuntu, &quot;Droid Sans&quot;, sans-serif, &quot;PingFang SC&quot;; font-size: 11px; text-rendering: geometricprecision; fill: rgb(255, 255, 255);">GRU</text><title>/gru/GRU</title></g><path class="node border" d="M5,0h25.6875a5,5 0 0 1 5,5v13a5,5 0 0 1 -5,5h-25.6875a5,5 0 0 1 -5,-5v-13a5,5 0 0 1 5,-5z" style="stroke: rgb(51, 51, 51); fill: none; stroke-width: 1px;"/></g><g id="node-name-/gru/Squeeze" class="node graph-node" transform="translate(107.109375,431)" style="opacity: 1;"><g class="node-item node-item-type node-item-type-transform" transform="translate(0,0)"><path d="M5,0h45.02490234375a5,5 0 0 1 5,5v13a5,5 0 0 1 -5,5h-45.02490234375a5,5 0 0 1 -5,-5v-13a5,5 0 0 1 5,-5z" style="stroke: rgb(0, 0, 0); fill: rgb(51, 85, 68); stroke-width: 0;"/><text x="6" y="16" style="font-family: -apple-system, BlinkMacSystemFont, &quot;Segoe WPC&quot;, &quot;Segoe UI&quot;, Ubuntu, &quot;Droid Sans&quot;, sans-serif, &quot;PingFang SC&quot;; font-size: 11px; text-rendering: geometricprecision; fill: rgb(255, 255, 255);">Squeeze</text><title>/gru/Squeeze</title></g><path class="node border" d="M5,0h45.02490234375a5,5 0 0 1 5,5v13a5,5 0 0 1 -5,5h-45.02490234375a5,5 0 0 1 -5,-5v-13a5,5 0 0 1 5,-5z" style="stroke: rgb(51, 51, 51); fill: none; stroke-width: 1px;"/></g><g id="node-name-/gru/Shape_1" class="node graph-node" transform="translate(139.46337890625,474)" style="opacity: 1;"><g class="node-item node-item-type" transform="translate(0,0)"><path d="M5,0h34.13232421875a5,5 0 0 1 5,5v13a5,5 0 0 1 -5,5h-34.13232421875a5,5 0 0 1 -5,-5v-13a5,5 0 0 1 5,-5z" style="stroke: rgb(0, 0, 0); fill: rgb(0, 0, 0); stroke-width: 0;"/><text x="6" y="16" style="font-family: -apple-system, BlinkMacSystemFont, &quot;Segoe WPC&quot;, &quot;Segoe UI&quot;, Ubuntu, &quot;Droid Sans&quot;, sans-serif, &quot;PingFang SC&quot;; font-size: 11px; text-rendering: geometricprecision; fill: rgb(255, 255, 255);">Shape</text><title>/gru/Shape_1</title></g><path class="node border" d="M5,0h34.13232421875a5,5 0 0 1 5,5v13a5,5 0 0 1 -5,5h-34.13232421875a5,5 0 0 1 -5,-5v-13a5,5 0 0 1 5,-5z" style="stroke: rgb(51, 51, 51); fill: none; stroke-width: 1px;"/></g><g id="node-name-/gru/Gather_1" class="node graph-node" transform="translate(137.60546875,517)" style="opacity: 1;"><g class="node-item node-item-type node-item-type-transform" transform="translate(0,0)"><path d="M5,0h37.84814453125a5,5 0 0 1 5,5v13a5,5 0 0 1 -5,5h-37.84814453125a5,5 0 0 1 -5,-5v-13a5,5 0 0 1 5,-5z" style="stroke: rgb(0, 0, 0); fill: rgb(51, 85, 68); stroke-width: 0;"/><text x="6" y="16" style="font-family: -apple-system, BlinkMacSystemFont, &quot;Segoe WPC&quot;, &quot;Segoe UI&quot;, Ubuntu, &quot;Droid Sans&quot;, sans-serif, &quot;PingFang SC&quot;; font-size: 11px; text-rendering: geometricprecision; fill: rgb(255, 255, 255);">Gather</text><title>/gru/Gather_1</title></g><path class="node border" d="M5,0h37.84814453125a5,5 0 0 1 5,5v13a5,5 0 0 1 -5,5h-37.84814453125a5,5 0 0 1 -5,-5v-13a5,5 0 0 1 5,-5z" style="stroke: rgb(51, 51, 51); fill: none; stroke-width: 1px;"/></g><g id="node-name-Unsqueeze_21" class="node graph-node" transform="translate(127.714111328125,560)" style="opacity: 1;"><g class="node-item node-item-type node-item-type-transform" transform="translate(0,0)"><path d="M5,0h57.630859375a5,5 0 0 1 5,5v13a5,5 0 0 1 -5,5h-57.630859375a5,5 0 0 1 -5,-5v-13a5,5 0 0 1 5,-5z" style="stroke: rgb(0, 0, 0); fill: rgb(51, 85, 68); stroke-width: 0;"/><text x="6" y="16" style="font-family: -apple-system, BlinkMacSystemFont, &quot;Segoe WPC&quot;, &quot;Segoe UI&quot;, Ubuntu, &quot;Droid Sans&quot;, sans-serif, &quot;PingFang SC&quot;; font-size: 11px; text-rendering: geometricprecision; fill: rgb(255, 255, 255);">Unsqueeze</text><title>Unsqueeze_21</title></g><path class="node border" d="M5,0h57.630859375a5,5 0 0 1 5,5v13a5,5 0 0 1 -5,5h-57.630859375a5,5 0 0 1 -5,-5v-13a5,5 0 0 1 5,-5z" style="stroke: rgb(51, 51, 51); fill: none; stroke-width: 1px;"/></g><g id="node-name-/gru/Concat_1" class="node graph-node" transform="translate(137.4501953125,603)" style="opacity: 1;"><g class="node-item node-item-type node-item-type-tensor" transform="translate(0,0)"><path d="M5,0h38.15869140625a5,5 0 0 1 5,5v13a5,5 0 0 1 -5,5h-38.15869140625a5,5 0 0 1 -5,-5v-13a5,5 0 0 1 5,-5z" style="stroke: rgb(0, 0, 0); fill: rgb(89, 66, 59); stroke-width: 0;"/><text x="6" y="16" style="font-family: -apple-system, BlinkMacSystemFont, &quot;Segoe WPC&quot;, &quot;Segoe UI&quot;, Ubuntu, &quot;Droid Sans&quot;, sans-serif, &quot;PingFang SC&quot;; font-size: 11px; text-rendering: geometricprecision; fill: rgb(255, 255, 255);">Concat</text><title>/gru/Concat_1</title></g><path class="node border" d="M5,0h38.15869140625a5,5 0 0 1 5,5v13a5,5 0 0 1 -5,5h-38.15869140625a5,5 0 0 1 -5,-5v-13a5,5 0 0 1 5,-5z" style="stroke: rgb(51, 51, 51); fill: none; stroke-width: 1px;"/></g><g id="node-name-/gru/Expand_1" class="node graph-node" transform="translate(136.834228515625,646)" style="opacity: 1;"><g class="node-item node-item-type" transform="translate(0,0)"><path d="M5,0h39.390625a5,5 0 0 1 5,5v13a5,5 0 0 1 -5,5h-39.390625a5,5 0 0 1 -5,-5v-13a5,5 0 0 1 5,-5z" style="stroke: rgb(0, 0, 0); fill: rgb(0, 0, 0); stroke-width: 0;"/><text x="6" y="16" style="font-family: -apple-system, BlinkMacSystemFont, &quot;Segoe WPC&quot;, &quot;Segoe UI&quot;, Ubuntu, &quot;Droid Sans&quot;, sans-serif, &quot;PingFang SC&quot;; font-size: 11px; text-rendering: geometricprecision; fill: rgb(255, 255, 255);">Expand</text><title>/gru/Expand_1</title></g><path class="node border" d="M5,0h39.390625a5,5 0 0 1 5,5v13a5,5 0 0 1 -5,5h-39.390625a5,5 0 0 1 -5,-5v-13a5,5 0 0 1 5,-5z" style="stroke: rgb(51, 51, 51); fill: none; stroke-width: 1px;"/></g><g id="node-name-/gru/GRU_1" class="node graph-node" transform="translate(116.778076171875,689)" style="opacity: 1;"><g class="node-item node-item-type node-item-type-layer" transform="translate(0,0)"><path d="M5,0h25.6875a5,5 0 0 1 5,5v13a5,5 0 0 1 -5,5h-25.6875a5,5 0 0 1 -5,-5v-13a5,5 0 0 1 5,-5z" style="stroke: rgb(0, 0, 0); fill: rgb(51, 85, 136); stroke-width: 0;"/><text x="6" y="16" style="font-family: -apple-system, BlinkMacSystemFont, &quot;Segoe WPC&quot;, &quot;Segoe UI&quot;, Ubuntu, &quot;Droid Sans&quot;, sans-serif, &quot;PingFang SC&quot;; font-size: 11px; text-rendering: geometricprecision; fill: rgb(255, 255, 255);">GRU</text><title>/gru/GRU_1</title></g><path class="node border" d="M5,0h25.6875a5,5 0 0 1 5,5v13a5,5 0 0 1 -5,5h-25.6875a5,5 0 0 1 -5,-5v-13a5,5 0 0 1 5,-5z" style="stroke: rgb(51, 51, 51); fill: none; stroke-width: 1px;"/></g><g id="node-name-/gru/Squeeze_1" class="node graph-node" transform="translate(107.109375,732)" style="opacity: 1;"><g class="node-item node-item-type node-item-type-transform" transform="translate(0,0)"><path d="M5,0h45.02490234375a5,5 0 0 1 5,5v13a5,5 0 0 1 -5,5h-45.02490234375a5,5 0 0 1 -5,-5v-13a5,5 0 0 1 5,-5z" style="stroke: rgb(0, 0, 0); fill: rgb(51, 85, 68); stroke-width: 0;"/><text x="6" y="16" style="font-family: -apple-system, BlinkMacSystemFont, &quot;Segoe WPC&quot;, &quot;Segoe UI&quot;, Ubuntu, &quot;Droid Sans&quot;, sans-serif, &quot;PingFang SC&quot;; font-size: 11px; text-rendering: geometricprecision; fill: rgb(255, 255, 255);">Squeeze</text><title>/gru/Squeeze_1</title></g><path class="node border" d="M5,0h45.02490234375a5,5 0 0 1 5,5v13a5,5 0 0 1 -5,5h-45.02490234375a5,5 0 0 1 -5,-5v-13a5,5 0 0 1 5,-5z" style="stroke: rgb(51, 51, 51); fill: none; stroke-width: 1px;"/></g><g id="node-name-/Gather" class="node graph-node" transform="translate(110.69775390625,775.5)" style="opacity: 1;"><g class="node-item node-item-type node-item-type-transform" transform="translate(0,0)"><path d="M5,0h37.84814453125a5,5 0 0 1 5,5v13a5,5 0 0 1 -5,5h-37.84814453125a5,5 0 0 1 -5,-5v-13a5,5 0 0 1 5,-5z" style="stroke: rgb(0, 0, 0); fill: rgb(51, 85, 68); stroke-width: 0;"/><text x="6" y="16" style="font-family: -apple-system, BlinkMacSystemFont, &quot;Segoe WPC&quot;, &quot;Segoe UI&quot;, Ubuntu, &quot;Droid Sans&quot;, sans-serif, &quot;PingFang SC&quot;; font-size: 11px; text-rendering: geometricprecision; fill: rgb(255, 255, 255);">Gather</text><title>/Gather</title></g><path class="node border" d="M5,0h37.84814453125a5,5 0 0 1 5,5v13a5,5 0 0 1 -5,5h-37.84814453125a5,5 0 0 1 -5,-5v-13a5,5 0 0 1 5,-5z" style="stroke: rgb(51, 51, 51); fill: none; stroke-width: 1px;"/></g><g id="node-name-/Concat" class="node graph-node" transform="translate(65.0089111328125,819)" style="opacity: 1;"><g class="node-item node-item-type node-item-type-tensor" transform="translate(0,0)"><path d="M5,0h38.15869140625a5,5 0 0 1 5,5v13a5,5 0 0 1 -5,5h-38.15869140625a5,5 0 0 1 -5,-5v-13a5,5 0 0 1 5,-5z" style="stroke: rgb(0, 0, 0); fill: rgb(89, 66, 59); stroke-width: 0;"/><text x="6" y="16" style="font-family: -apple-system, BlinkMacSystemFont, &quot;Segoe WPC&quot;, &quot;Segoe UI&quot;, Ubuntu, &quot;Droid Sans&quot;, sans-serif, &quot;PingFang SC&quot;; font-size: 11px; text-rendering: geometricprecision; fill: rgb(255, 255, 255);">Concat</text><title>/Concat</title></g><path class="node border" d="M5,0h38.15869140625a5,5 0 0 1 5,5v13a5,5 0 0 1 -5,5h-38.15869140625a5,5 0 0 1 -5,-5v-13a5,5 0 0 1 5,-5z" style="stroke: rgb(51, 51, 51); fill: none; stroke-width: 1px;"/></g><g id="node-name-/Cast" class="node graph-node" transform="translate(71.5509033203125,862)" style="opacity: 1;"><g class="node-item node-item-type" transform="translate(0,0)"><path d="M5,0h25.07470703125a5,5 0 0 1 5,5v13a5,5 0 0 1 -5,5h-25.07470703125a5,5 0 0 1 -5,-5v-13a5,5 0 0 1 5,-5z" style="stroke: rgb(0, 0, 0); fill: rgb(0, 0, 0); stroke-width: 0;"/><text x="6" y="16" style="font-family: -apple-system, BlinkMacSystemFont, &quot;Segoe WPC&quot;, &quot;Segoe UI&quot;, Ubuntu, &quot;Droid Sans&quot;, sans-serif, &quot;PingFang SC&quot;; font-size: 11px; text-rendering: geometricprecision; fill: rgb(255, 255, 255);">Cast</text><title>/Cast</title></g><path class="node border" d="M5,0h25.07470703125a5,5 0 0 1 5,5v13a5,5 0 0 1 -5,5h-25.07470703125a5,5 0 0 1 -5,-5v-13a5,5 0 0 1 5,-5z" style="stroke: rgb(51, 51, 51); fill: none; stroke-width: 1px;"/></g><g id="node-name-/dense1/Gemm" class="node graph-node" transform="translate(65.9632568359375,905)" style="opacity: 1;"><g class="node-item node-item-type node-item-type-layer" transform="translate(0,0)"><path d="M5,0h36.25a5,5 0 0 1 5,5v13a5,5 0 0 1 -5,5h-36.25a5,5 0 0 1 -5,-5v-13a5,5 0 0 1 5,-5z" style="stroke: rgb(0, 0, 0); fill: rgb(51, 85, 136); stroke-width: 0;"/><text x="6" y="16" style="font-family: -apple-system, BlinkMacSystemFont, &quot;Segoe WPC&quot;, &quot;Segoe UI&quot;, Ubuntu, &quot;Droid Sans&quot;, sans-serif, &quot;PingFang SC&quot;; font-size: 11px; text-rendering: geometricprecision; fill: rgb(255, 255, 255);">Gemm</text><title>/dense1/Gemm</title></g><path class="node border" d="M5,0h36.25a5,5 0 0 1 5,5v13a5,5 0 0 1 -5,5h-36.25a5,5 0 0 1 -5,-5v-13a5,5 0 0 1 5,-5z" style="stroke: rgb(51, 51, 51); fill: none; stroke-width: 1px;"/></g><g id="node-name-/Relu" class="node graph-node" transform="translate(71.6351318359375,948)" style="opacity: 1;"><g class="node-item node-item-type node-item-type-activation" transform="translate(0,0)"><path d="M5,0h24.90625a5,5 0 0 1 5,5v13a5,5 0 0 1 -5,5h-24.90625a5,5 0 0 1 -5,-5v-13a5,5 0 0 1 5,-5z" style="stroke: rgb(0, 0, 0); fill: rgb(112, 41, 33); stroke-width: 0;"/><text x="6" y="16" style="font-family: -apple-system, BlinkMacSystemFont, &quot;Segoe WPC&quot;, &quot;Segoe UI&quot;, Ubuntu, &quot;Droid Sans&quot;, sans-serif, &quot;PingFang SC&quot;; font-size: 11px; text-rendering: geometricprecision; fill: rgb(255, 255, 255);">Relu</text><title>/Relu</title></g><path class="node border" d="M5,0h24.90625a5,5 0 0 1 5,5v13a5,5 0 0 1 -5,5h-24.90625a5,5 0 0 1 -5,-5v-13a5,5 0 0 1 5,-5z" style="stroke: rgb(51, 51, 51); fill: none; stroke-width: 1px;"/></g><g id="node-name-/dense2/Gemm" class="node graph-node" transform="translate(65.9632568359375,991)" style="opacity: 1;"><g class="node-item node-item-type node-item-type-layer" transform="translate(0,0)"><path d="M5,0h36.25a5,5 0 0 1 5,5v13a5,5 0 0 1 -5,5h-36.25a5,5 0 0 1 -5,-5v-13a5,5 0 0 1 5,-5z" style="stroke: rgb(0, 0, 0); fill: rgb(51, 85, 136); stroke-width: 0;"/><text x="6" y="16" style="font-family: -apple-system, BlinkMacSystemFont, &quot;Segoe WPC&quot;, &quot;Segoe UI&quot;, Ubuntu, &quot;Droid Sans&quot;, sans-serif, &quot;PingFang SC&quot;; font-size: 11px; text-rendering: geometricprecision; fill: rgb(255, 255, 255);">Gemm</text><title>/dense2/Gemm</title></g><path class="node border" d="M5,0h36.25a5,5 0 0 1 5,5v13a5,5 0 0 1 -5,5h-36.25a5,5 0 0 1 -5,-5v-13a5,5 0 0 1 5,-5z" style="stroke: rgb(51, 51, 51); fill: none; stroke-width: 1px;"/></g><g id="node-name-/Sigmoid" class="node graph-node" transform="translate(62.0648193359375,1034)" style="opacity: 1;"><g class="node-item node-item-type node-item-type-activation" transform="translate(0,0)"><path d="M5,0h44.046875a5,5 0 0 1 5,5v13a5,5 0 0 1 -5,5h-44.046875a5,5 0 0 1 -5,-5v-13a5,5 0 0 1 5,-5z" style="stroke: rgb(0, 0, 0); fill: rgb(112, 41, 33); stroke-width: 0;"/><text x="6" y="16" style="font-family: -apple-system, BlinkMacSystemFont, &quot;Segoe WPC&quot;, &quot;Segoe UI&quot;, Ubuntu, &quot;Droid Sans&quot;, sans-serif, &quot;PingFang SC&quot;; font-size: 11px; text-rendering: geometricprecision; fill: rgb(255, 255, 255);">Sigmoid</text><title>/Sigmoid</title></g><path class="node border" d="M5,0h44.046875a5,5 0 0 1 5,5v13a5,5 0 0 1 -5,5h-44.046875a5,5 0 0 1 -5,-5v-13a5,5 0 0 1 5,-5z" style="stroke: rgb(51, 51, 51); fill: none; stroke-width: 1px;"/></g><g class="node" transform="translate(73.1585693359375,1101)" style="opacity: 1;"><g class="node-item graph-item-output" transform="translate(0,0)"><path d="M5,0h21.859375a5,5 0 0 1 5,5v13a5,5 0 0 1 -5,5h-21.859375a5,5 0 0 1 -5,-5v-13a5,5 0 0 1 5,-5z" style="stroke: rgb(0, 0, 0); fill: rgb(238, 238, 238); stroke-width: 0;"/><text x="6" y="16" style="font-family: -apple-system, BlinkMacSystemFont, &quot;Segoe WPC&quot;, &quot;Segoe UI&quot;, Ubuntu, &quot;Droid Sans&quot;, sans-serif, &quot;PingFang SC&quot;; font-size: 11px; text-rendering: geometricprecision;">184</text><title>float32[128,1]</title></g><path class="node border" d="M5,0h21.859375a5,5 0 0 1 5,5v13a5,5 0 0 1 -5,5h-21.859375a5,5 0 0 1 -5,-5v-13a5,5 0 0 1 5,-5z" style="stroke: rgb(51, 51, 51); fill: none; stroke-width: 1px;"/></g></g></g></svg>